<?xml version="1.0" encoding="UTF-8" standalone="no"?>
<!-- Created with Inkscape (http://www.inkscape.org/) -->

<svg
   xmlns:dc="http://purl.org/dc/elements/1.1/"
   xmlns:cc="http://creativecommons.org/ns#"
   xmlns:rdf="http://www.w3.org/1999/02/22-rdf-syntax-ns#"
   xmlns:svg="http://www.w3.org/2000/svg"
   xmlns="http://www.w3.org/2000/svg"
   xmlns:sodipodi="http://sodipodi.sourceforge.net/DTD/sodipodi-0.dtd"
   xmlns:inkscape="http://www.inkscape.org/namespaces/inkscape"
   version="1.1"
   id="svg3767"
   width="259"
   height="194"
   viewBox="0 0 259 194"
   sodipodi:docname="car-logo.svg"
   inkscape:version="0.92.3 (2405546, 2018-03-11)"
   inkscape:export-filename="/work/car/carMobile/assets/image/car-logo.png"
   inkscape:export-xdpi="96"
   inkscape:export-ydpi="96">
  <metadata
     id="metadata3773">
    <rdf:RDF>
      <cc:Work
         rdf:about="">
        <dc:format>image/svg+xml</dc:format>
        <dc:type
           rdf:resource="http://purl.org/dc/dcmitype/StillImage" />
      </cc:Work>
    </rdf:RDF>
  </metadata>
  <defs
     id="defs3771" />
  <sodipodi:namedview
     pagecolor="#ffffff"
     bordercolor="#666666"
     borderopacity="1"
     objecttolerance="10"
     gridtolerance="10"
     guidetolerance="10"
     inkscape:pageopacity="0"
     inkscape:pageshadow="2"
     inkscape:window-width="1920"
     inkscape:window-height="983"
     id="namedview3769"
     showgrid="false"
     inkscape:zoom="5.7589108"
     inkscape:cx="119.626"
     inkscape:cy="96.623535"
     inkscape:window-x="1600"
     inkscape:window-y="27"
     inkscape:window-maximized="1"
     inkscape:current-layer="svg3767" />
  <path
     style="fill:#186d6a;fill-opacity:1;fill-rule:evenodd;stroke:none;stroke-width:1px;stroke-linecap:butt;stroke-linejoin:miter;stroke-opacity:1"
     d="m 102.01582,90.855497 4.60156,0.08682 0.98664,-6.470419 0.14205,-0.56216 c 0.45784,-1.764442 0.63303,-6.030312 -0.86822,-13.19694 l -0.43411,-2.778303 2.69148,0.868219 c 3.47871,0.868155 7.20181,1.328987 11.37368,1.041864 3.16947,-0.732397 8.54317,-1.598725 9.49955,-1.675047 10.0104,0.621574 21.11068,9.428785 22.36411,22.685964 l 5.1225,0.08682 c 1.88227,0.153278 4.19918,0.737458 7.03258,4.775209 1.00051,1.932816 1.69021,3.802324 1.92498,5.567146 l 0.59285,6.67476 2.86513,0.17364 -0.0868,6.07754 h -8.85584 c -0.38145,10.13289 -6.05767,12.09048 -11.85429,12.06825 -6.84737,-0.28438 -10.52743,-6.56423 -11.50082,-12.06825 l -16.75665,-0.0868 c -0.1213,6.18998 -1.90724,11.38117 -11.20003,12.06825 -5.86716,0.14581 -10.52511,-2.52986 -12.241897,-12.06825 h -8.76902 l 0.347288,-5.81708 h 3.038769 l -0.08682,-7.46669 c 0.918999,-6.849897 5.013064,-9.113587 10.07133,-9.984543 z"
     id="path3779"
     inkscape:connector-curvature="0"
     sodipodi:nodetypes="ccccccccccccccccccccccccccc" />
  <ellipse
     style="fill:#ffffff;stroke:none;stroke-opacity:1"
     id="path3792"
     cx="109.26545"
     cy="114.29743"
     rx="5.3395514"
     ry="5.5566063" />
  <ellipse
     style="fill:#ffffff;stroke:none;stroke-opacity:1"
     id="path3792-3"
     cx="149.59425"
     cy="114.47108"
     rx="5.3395514"
     ry="5.5566063" />
  <path
     style="fill:#ffffff;fill-rule:evenodd;stroke:none;stroke-width:1px;stroke-linecap:butt;stroke-linejoin:miter;stroke-opacity:1"
     d="m 112.34763,91.202785 34.55515,0.173644 C 144.2081,76.937854 130.0267,72.265862 124.76317,74.967076 c -1.05172,0.544626 -1.15672,0.453634 -1.64961,0.477521 l -9.89771,-0.217055 c 0.4567,3.066439 1.25217,6.200633 0.95504,9.116307 -0.60775,3.016645 -1.21551,4.752499 -1.82326,6.858936 z"
     id="path3809"
     inkscape:connector-curvature="0"
     sodipodi:nodetypes="ccccccc" />
</svg>
